%
M48
M72
T01C0.02400
T02C0.04000
%
T01
X15300Y35800
X20800Y88800
X66800Y72800
X68300Y35800
T02
X6800Y6800
X6800Y16800
X6800Y26800
X16800Y26800
X16800Y16800
X16800Y6800
X26800Y6800
X26800Y16800
X26800Y26800
X36800Y26800
X36800Y16800
X36800Y6800
X46800Y6800
X46800Y16800
X46800Y26800
X56800Y26800
X56800Y16800
X56800Y6800
X66800Y6800
X66800Y16800
X66800Y26800
X76800Y26800
X76800Y16800
X76800Y6800
X41800Y61800
X41800Y71800
X41800Y81800
X41800Y91800
X41800Y101800
M30
